<?xml version="1.0" standalone="no"?><!DOCTYPE svg PUBLIC "-//W3C//DTD SVG 1.1//EN" "http://www.w3.org/Graphics/SVG/1.1/DTD/svg11.dtd"><svg width="100%" height="100%" viewBox="0 0 400 76" version="1.1" xmlns="http://www.w3.org/2000/svg" xmlns:xlink="http://www.w3.org/1999/xlink" xml:space="preserve" style="fill-rule:evenodd;clip-rule:evenodd;stroke-linejoin:round;stroke-miterlimit:1.41421;"><g id="g4814"><g id="g3969"><path id="path3924" d="M34.575,14.63l0,4.533c0,0 -2.564,-0.012 -3.843,0.052c-0.371,0.019 -0.741,0.06 -1.111,0.097c-0.565,0.057 -1.13,0.102 -1.69,0.192c-0.39,0.063 -0.781,0.134 -1.16,0.244c-0.397,0.115 -0.785,0.26 -1.16,0.432c-0.334,0.153 -0.66,0.328 -0.965,0.533c-0.276,0.185 -0.549,0.383 -0.774,0.627c-0.251,0.273 -0.451,0.592 -0.63,0.916c-0.176,0.317 -0.321,0.649 -0.433,0.993c-0.187,0.58 -0.297,1.185 -0.386,1.788c-0.116,0.782 -0.132,1.574 -0.195,2.362c-0.13,1.608 -0.217,3.22 -0.387,4.825c-0.195,1.84 -0.384,3.683 -0.725,5.501c-0.036,0.194 -0.082,0.387 -0.139,0.575c-0.097,0.324 -0.193,0.654 -0.342,0.958c-0.192,0.396 -0.428,0.771 -0.703,1.115c-0.239,0.299 -0.512,0.58 -0.816,0.812c-0.259,0.198 -0.55,0.352 -0.846,0.488c-0.36,0.165 -0.743,0.273 -1.119,0.397c-0.274,0.09 -0.549,0.192 -0.832,0.251c-0.157,0.032 -0.478,0.056 -0.478,0.056c-0.123,0 -0.24,0.048 -0.327,0.135c-0.087,0.087 -0.136,0.205 -0.136,0.328l0,9.595l19.197,0l0,5.055l8.41,0l0,-5.055l19.197,0l0,-9.595c0,-0.256 -0.266,-0.369 -0.463,-0.463c-0.145,-0.07 -0.32,-0.024 -0.477,-0.056c-0.284,-0.059 -0.558,-0.161 -0.833,-0.251c-0.376,-0.124 -0.759,-0.232 -1.118,-0.397c-0.297,-0.136 -0.592,-0.29 -0.851,-0.488c-0.304,-0.232 -0.573,-0.513 -0.811,-0.812c-0.275,-0.344 -0.511,-0.719 -0.704,-1.115c-0.148,-0.304 -0.244,-0.634 -0.342,-0.958c-0.056,-0.188 -0.106,-0.381 -0.142,-0.575c-0.341,-1.818 -0.53,-3.661 -0.725,-5.501c-0.17,-1.605 -0.253,-3.217 -0.383,-4.825c-0.064,-0.788 -0.079,-1.58 -0.195,-2.362c-0.09,-0.603 -0.2,-1.208 -0.387,-1.788c-0.111,-0.344 -0.26,-0.676 -0.436,-0.993c-0.179,-0.324 -0.376,-0.643 -0.627,-0.916c-0.225,-0.244 -0.498,-0.442 -0.773,-0.627c-0.305,-0.205 -0.631,-0.38 -0.965,-0.533c-0.375,-0.172 -0.764,-0.317 -1.16,-0.432c-0.38,-0.11 -0.771,-0.181 -1.161,-0.244c-0.56,-0.09 -1.125,-0.135 -1.689,-0.192c-0.37,-0.037 -0.74,-0.078 -1.112,-0.097c-1.279,-0.064 -3.843,-0.052 -3.843,-0.052l0,-4.533l-8.41,0ZM38.78,25.406c0.824,0 1.647,0.007 2.47,0.031c1.071,0.031 2.147,0.034 3.213,0.147c0.337,0.035 0.669,0.106 1.003,0.167c0.28,0.051 0.57,0.067 0.836,0.167c0.288,0.109 0.552,0.278 0.798,0.463c0.192,0.146 0.367,0.319 0.523,0.502c0.155,0.183 0.303,0.379 0.407,0.596c0.112,0.233 0.146,0.495 0.223,0.742c0.06,0.191 0.144,0.375 0.185,0.571c0.117,0.56 0.12,1.138 0.167,1.708c0.084,1.018 0.143,2.039 0.206,3.059c0.034,0.562 0.053,1.127 0.094,1.689c0.045,0.626 0.099,1.251 0.167,1.875c0.068,0.631 0.141,1.261 0.24,1.888c0.058,0.361 0.124,0.721 0.206,1.077c0.085,0.368 0.157,0.742 0.296,1.094c0.136,0.345 0.314,0.676 0.519,0.986c0.19,0.286 0.409,0.554 0.652,0.797c0.158,0.159 0.332,0.306 0.522,0.425c0.214,0.134 0.455,0.218 0.687,0.317c0.214,0.092 0.43,0.182 0.651,0.258c0.165,0.057 0.329,0.125 0.502,0.15c0.111,0.016 0.338,0 0.338,0l0,1.759l-29.809,0l0,-1.759c0,0 0.226,0.016 0.338,0c0.172,-0.025 0.336,-0.093 0.501,-0.15c0.221,-0.076 0.437,-0.166 0.652,-0.258c0.232,-0.099 0.472,-0.183 0.686,-0.317c0.19,-0.119 0.364,-0.266 0.523,-0.425c0.242,-0.243 0.458,-0.511 0.648,-0.797c0.205,-0.31 0.386,-0.641 0.522,-0.986c0.139,-0.352 0.212,-0.726 0.296,-1.094c0.082,-0.356 0.149,-0.716 0.206,-1.077c0.1,-0.627 0.172,-1.257 0.24,-1.888c0.068,-0.624 0.123,-1.249 0.168,-1.875c0.04,-0.562 0.059,-1.127 0.094,-1.689c0.062,-1.02 0.118,-2.041 0.202,-3.059c0.047,-0.57 0.05,-1.148 0.167,-1.708c0.041,-0.196 0.128,-0.38 0.188,-0.571c0.077,-0.247 0.111,-0.509 0.223,-0.742c0.104,-0.217 0.252,-0.413 0.408,-0.596c0.156,-0.183 0.327,-0.356 0.519,-0.502c0.246,-0.185 0.513,-0.354 0.801,-0.463c0.266,-0.1 0.557,-0.116 0.836,-0.167c0.334,-0.061 0.667,-0.132 1.004,-0.167c1.065,-0.113 2.141,-0.116 3.212,-0.147c0.823,-0.024 1.646,-0.031 2.47,-0.031Z" style="fill:#000;fill-rule:nonzero;"/><path id="path3918" d="M38.78,0.983c-20.544,0 -37.199,16.654 -37.199,37.199c0,20.544 16.655,37.199 37.199,37.199c20.545,0 37.199,-16.655 37.199,-37.199c0,-20.545 -16.654,-37.199 -37.199,-37.199ZM38.78,7.568c16.909,0 30.614,13.705 30.614,30.614c0,16.908 -13.705,30.617 -30.614,30.617c-16.908,0 -30.617,-13.709 -30.617,-30.617c0,-16.909 13.709,-30.614 30.617,-30.614Z" style="fill:#000;fill-rule:nonzero;"/></g><g id="g3750"><path id="path3702" d="M92.52,33.917l0,-6.765l5.7,0c0.543,0 1.06,0.054 1.551,0.162c0.517,0.081 0.969,0.243 1.357,0.486c0.388,0.243 0.698,0.58 0.931,1.012c0.232,0.433 0.348,0.986 0.348,1.661c0,1.216 -0.348,2.093 -1.046,2.633c-0.698,0.54 -1.59,0.811 -2.676,0.811l-6.165,0M86.433,22.21l0,28.923l13.415,0c1.241,0 2.443,-0.162 3.606,-0.486c1.189,-0.324 2.236,-0.824 3.141,-1.499c0.931,-0.675 1.667,-1.54 2.21,-2.593c0.543,-1.08 0.814,-2.349 0.814,-3.808c0,-1.809 -0.426,-3.348 -1.279,-4.618c-0.827,-1.296 -2.094,-2.201 -3.8,-2.714c1.241,-0.621 2.171,-1.417 2.792,-2.39c0.646,-0.972 0.969,-2.187 0.969,-3.645c0,-1.351 -0.22,-2.485 -0.659,-3.403c-0.414,-0.918 -1.008,-1.647 -1.784,-2.188c-0.775,-0.567 -1.706,-0.972 -2.791,-1.215c-1.086,-0.243 -2.288,-0.364 -3.606,-0.364l-13.028,0M92.52,46.191l0,-7.94l6.631,0c1.318,0 2.378,0.324 3.179,0.972c0.801,0.621 1.202,1.675 1.202,3.16c0,0.756 -0.129,1.377 -0.388,1.863c-0.232,0.486 -0.556,0.878 -0.969,1.175c-0.414,0.27 -0.892,0.473 -1.435,0.608c-0.543,0.108 -1.111,0.162 -1.706,0.162l-6.514,0" style="fill:#000;fill-rule:nonzero;"/><path id="path3704" d="M126.607,38.413l-8.957,0c0.026,-0.405 0.103,-0.864 0.233,-1.377c0.155,-0.513 0.401,-0.999 0.737,-1.459c0.361,-0.459 0.827,-0.837 1.395,-1.134c0.595,-0.324 1.332,-0.486 2.21,-0.486c1.345,0 2.34,0.378 2.986,1.134c0.672,0.757 1.137,1.864 1.396,3.322M117.65,42.059l14.463,0c0.103,-1.621 -0.026,-3.173 -0.388,-4.659c-0.362,-1.485 -0.957,-2.808 -1.784,-3.97c-0.801,-1.161 -1.835,-2.079 -3.102,-2.754c-1.266,-0.702 -2.752,-1.053 -4.458,-1.053c-1.526,0 -2.921,0.283 -4.188,0.85c-1.241,0.567 -2.313,1.351 -3.218,2.35c-0.905,0.972 -1.603,2.133 -2.094,3.484c-0.491,1.35 -0.737,2.808 -0.737,4.375c0,1.62 0.233,3.105 0.698,4.455c0.491,1.351 1.176,2.512 2.055,3.484c0.879,0.972 1.952,1.729 3.219,2.269c1.266,0.513 2.688,0.769 4.265,0.769c2.274,0 4.213,-0.54 5.816,-1.62c1.602,-1.08 2.791,-2.876 3.567,-5.388l-4.847,0c-0.181,0.649 -0.672,1.27 -1.473,1.864c-0.802,0.567 -1.758,0.85 -2.87,0.85c-1.551,0 -2.74,-0.418 -3.567,-1.255c-0.827,-0.837 -1.279,-2.188 -1.357,-4.051" style="fill:#000;fill-rule:nonzero;"/><path id="path3706" d="M135.533,22.21l0,28.923l5.506,0l0,-28.923l-5.506,0" style="fill:#000;fill-rule:nonzero;"/><path id="path3708" d="M145.529,22.21l0,28.923l5.506,0l0,-28.923l-5.506,0" style="fill:#000;fill-rule:nonzero;"/><path id="path3710" d="M166.706,22.21l0,28.923l19.58,0l0,-5.347l-13.493,0l0,-23.576l-6.087,0" style="fill:#000;fill-rule:nonzero;"/><path id="path3712" d="M188.913,36.631l5.506,0c0.103,-1.135 0.465,-1.945 1.085,-2.431c0.621,-0.486 1.474,-0.729 2.559,-0.729c0.492,0 0.944,0.041 1.358,0.121c0.439,0.054 0.814,0.189 1.124,0.406c0.336,0.189 0.594,0.472 0.775,0.85c0.207,0.351 0.311,0.837 0.311,1.459c0.025,0.594 -0.143,1.053 -0.504,1.377c-0.362,0.297 -0.854,0.526 -1.474,0.688c-0.62,0.162 -1.331,0.284 -2.132,0.365c-0.802,0.081 -1.616,0.189 -2.443,0.324c-0.827,0.135 -1.654,0.324 -2.482,0.567c-0.801,0.216 -1.525,0.554 -2.171,1.013c-0.62,0.459 -1.137,1.08 -1.551,1.863c-0.388,0.757 -0.581,1.729 -0.581,2.917c0,1.08 0.168,2.012 0.504,2.795c0.362,0.783 0.853,1.431 1.473,1.944c0.62,0.514 1.344,0.892 2.171,1.135c0.827,0.243 1.719,0.364 2.676,0.364c1.24,0 2.455,-0.189 3.644,-0.567c1.189,-0.378 2.223,-1.04 3.102,-1.985c0.026,0.351 0.065,0.702 0.117,1.053c0.077,0.325 0.168,0.649 0.271,0.973l5.583,0c-0.258,-0.432 -0.439,-1.081 -0.542,-1.945c-0.104,-0.864 -0.156,-1.769 -0.156,-2.714l0,-10.897c0,-1.269 -0.271,-2.282 -0.814,-3.038c-0.543,-0.783 -1.241,-1.391 -2.094,-1.823c-0.853,-0.432 -1.796,-0.715 -2.83,-0.85c-1.034,-0.162 -2.055,-0.243 -3.063,-0.243c-1.112,0 -2.223,0.121 -3.335,0.364c-1.085,0.216 -2.067,0.594 -2.946,1.134c-0.879,0.541 -1.603,1.256 -2.172,2.147c-0.568,0.892 -0.891,2.012 -0.969,3.363M201.631,40.884l0,2.147c0,0.324 -0.039,0.756 -0.117,1.296c-0.052,0.54 -0.219,1.08 -0.504,1.621c-0.284,0.513 -0.724,0.958 -1.318,1.336c-0.595,0.378 -1.435,0.567 -2.52,0.567c-0.44,0 -0.866,-0.04 -1.28,-0.121c-0.413,-0.081 -0.775,-0.216 -1.085,-0.405c-0.311,-0.216 -0.556,-0.5 -0.737,-0.851c-0.181,-0.351 -0.272,-0.783 -0.272,-1.296c0,-0.54 0.091,-0.986 0.272,-1.337c0.181,-0.351 0.413,-0.634 0.698,-0.851c0.31,-0.243 0.659,-0.432 1.047,-0.567c0.413,-0.135 0.827,-0.243 1.24,-0.324c0.44,-0.081 0.879,-0.148 1.319,-0.202c0.439,-0.054 0.853,-0.122 1.24,-0.203c0.414,-0.081 0.789,-0.175 1.125,-0.283c0.362,-0.135 0.659,-0.311 0.892,-0.527" style="fill:#000;fill-rule:nonzero;"/><path id="path3714" d="M226.105,40.682c0,0.864 -0.091,1.701 -0.271,2.511c-0.181,0.81 -0.466,1.526 -0.853,2.147c-0.388,0.621 -0.879,1.121 -1.474,1.499c-0.569,0.351 -1.266,0.526 -2.094,0.526c-0.801,0 -1.499,-0.175 -2.093,-0.526c-0.595,-0.378 -1.086,-0.878 -1.474,-1.499c-0.387,-0.621 -0.672,-1.337 -0.853,-2.147c-0.181,-0.81 -0.271,-1.647 -0.271,-2.511c0,-0.892 0.09,-1.742 0.271,-2.553c0.181,-0.81 0.466,-1.525 0.853,-2.146c0.388,-0.622 0.879,-1.108 1.474,-1.459c0.594,-0.378 1.292,-0.567 2.093,-0.567c0.828,0 1.525,0.189 2.094,0.567c0.595,0.351 1.086,0.837 1.474,1.459c0.387,0.621 0.672,1.336 0.853,2.146c0.18,0.811 0.271,1.661 0.271,2.553M211.41,22.21l0,28.923l5.234,0l0,-2.674l0.078,0c0.594,1.161 1.473,1.985 2.636,2.471c1.164,0.486 2.482,0.729 3.955,0.729c1.008,0 2.004,-0.216 2.986,-0.648c0.982,-0.432 1.861,-1.093 2.636,-1.985c0.802,-0.891 1.448,-2.025 1.939,-3.402c0.491,-1.405 0.737,-3.066 0.737,-4.983c0,-1.917 -0.246,-3.565 -0.737,-4.942c-0.491,-1.404 -1.137,-2.552 -1.939,-3.443c-0.775,-0.891 -1.654,-1.553 -2.636,-1.985c-0.982,-0.432 -1.978,-0.648 -2.986,-0.648c-1.24,0 -2.442,0.256 -3.606,0.769c-1.137,0.486 -2.042,1.27 -2.714,2.35l-0.077,0l0,-10.532l-5.506,0" style="fill:#000;fill-rule:nonzero;"/><path id="path3716" d="M239.998,40.682c0,-0.838 0.078,-1.661 0.233,-2.472c0.155,-0.81 0.414,-1.525 0.776,-2.146c0.387,-0.622 0.891,-1.121 1.512,-1.499c0.62,-0.405 1.396,-0.608 2.326,-0.608c0.931,0 1.706,0.203 2.327,0.608c0.646,0.378 1.15,0.877 1.512,1.499c0.387,0.621 0.659,1.336 0.814,2.146c0.155,0.811 0.233,1.634 0.233,2.472c0,0.837 -0.078,1.66 -0.233,2.471c-0.155,0.783 -0.427,1.498 -0.814,2.147c-0.362,0.621 -0.866,1.12 -1.512,1.498c-0.621,0.378 -1.396,0.567 -2.327,0.567c-0.93,0 -1.706,-0.189 -2.326,-0.567c-0.621,-0.378 -1.125,-0.877 -1.512,-1.498c-0.362,-0.649 -0.621,-1.364 -0.776,-2.147c-0.155,-0.811 -0.233,-1.634 -0.233,-2.471M234.493,40.682c0,1.674 0.245,3.186 0.736,4.536c0.492,1.351 1.189,2.512 2.094,3.484c0.905,0.945 1.99,1.675 3.257,2.188c1.267,0.513 2.688,0.769 4.265,0.769c1.577,0 2.999,-0.256 4.265,-0.769c1.293,-0.513 2.391,-1.243 3.296,-2.188c0.905,-0.972 1.603,-2.133 2.094,-3.484c0.491,-1.35 0.736,-2.862 0.736,-4.536c0,-1.675 -0.245,-3.187 -0.736,-4.537c-0.491,-1.378 -1.189,-2.539 -2.094,-3.484c-0.905,-0.972 -2.003,-1.715 -3.296,-2.228c-1.266,-0.54 -2.688,-0.81 -4.265,-0.81c-1.577,0 -2.998,0.27 -4.265,0.81c-1.267,0.513 -2.352,1.256 -3.257,2.228c-0.905,0.945 -1.602,2.106 -2.094,3.484c-0.491,1.35 -0.736,2.862 -0.736,4.537" style="fill:#000;fill-rule:nonzero;"/><path id="path3718" d="M258.816,30.19l0,20.943l5.506,0l0,-9.439c0,-0.945 0.091,-1.823 0.271,-2.633c0.181,-0.81 0.479,-1.512 0.892,-2.106c0.44,-0.621 1.008,-1.107 1.706,-1.459c0.698,-0.351 1.551,-0.526 2.559,-0.526c0.336,0 0.685,0.027 1.047,0.081c0.362,0.027 0.672,0.067 0.931,0.121l0,-5.347c-0.44,-0.135 -0.84,-0.202 -1.202,-0.202c-0.698,0 -1.37,0.108 -2.016,0.324c-0.647,0.216 -1.254,0.526 -1.823,0.931c-0.569,0.379 -1.073,0.851 -1.512,1.418c-0.439,0.54 -0.788,1.134 -1.047,1.783l-0.077,0l0,-3.889l-5.235,0" style="fill:#000;fill-rule:nonzero;"/><path id="path3720" d="M273.654,36.631l5.505,0c0.104,-1.135 0.466,-1.945 1.086,-2.431c0.62,-0.486 1.473,-0.729 2.559,-0.729c0.491,0 0.944,0.041 1.357,0.121c0.44,0.054 0.814,0.189 1.125,0.406c0.336,0.189 0.594,0.472 0.775,0.85c0.207,0.351 0.31,0.837 0.31,1.459c0.026,0.594 -0.142,1.053 -0.504,1.377c-0.362,0.297 -0.853,0.526 -1.473,0.688c-0.621,0.162 -1.331,0.284 -2.133,0.365c-0.801,0.081 -1.615,0.189 -2.442,0.324c-0.828,0.135 -1.655,0.324 -2.482,0.567c-0.801,0.216 -1.525,0.554 -2.171,1.013c-0.621,0.459 -1.138,1.08 -1.551,1.863c-0.388,0.757 -0.582,1.729 -0.582,2.917c0,1.08 0.168,2.012 0.504,2.795c0.362,0.783 0.853,1.431 1.474,1.944c0.62,0.514 1.344,0.892 2.171,1.135c0.827,0.243 1.719,0.364 2.675,0.364c1.241,0 2.456,-0.189 3.645,-0.567c1.189,-0.378 2.223,-1.04 3.102,-1.985c0.026,0.351 0.064,0.702 0.116,1.053c0.078,0.325 0.168,0.649 0.272,0.973l5.583,0c-0.258,-0.432 -0.439,-1.081 -0.543,-1.945c-0.103,-0.864 -0.155,-1.769 -0.155,-2.714l0,-10.897c0,-1.269 -0.271,-2.282 -0.814,-3.038c-0.543,-0.783 -1.241,-1.391 -2.094,-1.823c-0.853,-0.432 -1.796,-0.715 -2.83,-0.85c-1.034,-0.162 -2.055,-0.243 -3.063,-0.243c-1.112,0 -2.223,0.121 -3.335,0.364c-1.086,0.216 -2.068,0.594 -2.947,1.134c-0.879,0.541 -1.602,1.256 -2.171,2.147c-0.569,0.892 -0.892,2.012 -0.969,3.363M286.371,40.884l0,2.147c0,0.324 -0.038,0.756 -0.116,1.296c-0.052,0.54 -0.22,1.08 -0.504,1.621c-0.284,0.513 -0.724,0.958 -1.318,1.336c-0.595,0.378 -1.435,0.567 -2.521,0.567c-0.439,0 -0.866,-0.04 -1.279,-0.121c-0.414,-0.081 -0.776,-0.216 -1.086,-0.405c-0.31,-0.216 -0.556,-0.5 -0.737,-0.851c-0.18,-0.351 -0.271,-0.783 -0.271,-1.296c0,-0.54 0.09,-0.986 0.271,-1.337c0.181,-0.351 0.414,-0.634 0.698,-0.851c0.311,-0.243 0.66,-0.432 1.047,-0.567c0.414,-0.135 0.827,-0.243 1.241,-0.324c0.439,-0.081 0.879,-0.148 1.318,-0.202c0.44,-0.054 0.853,-0.122 1.241,-0.203c0.414,-0.081 0.788,-0.175 1.124,-0.283c0.362,-0.135 0.66,-0.311 0.892,-0.527" style="fill:#000;fill-rule:nonzero;"/><path id="path3722" d="M303.13,30.19l0,-6.279l-5.506,0l0,6.279l-3.335,0l0,3.848l3.335,0l0,12.355c0,1.053 0.168,1.904 0.504,2.552c0.336,0.648 0.788,1.148 1.357,1.499c0.595,0.351 1.267,0.581 2.016,0.689c0.776,0.135 1.59,0.202 2.443,0.202c0.543,0 1.099,-0.012 1.667,-0.04c0.569,-0.027 1.086,-0.081 1.551,-0.162l0,-4.456c-0.258,0.054 -0.53,0.094 -0.814,0.121c-0.284,0.027 -0.582,0.041 -0.892,0.041c-0.93,0 -1.551,-0.162 -1.861,-0.486c-0.31,-0.324 -0.465,-0.972 -0.465,-1.945l0,-10.37l4.032,0l0,-3.848l-4.032,0" style="fill:#000;fill-rule:nonzero;"/><path id="path3724" d="M314.667,40.682c0,-0.838 0.078,-1.661 0.233,-2.472c0.155,-0.81 0.413,-1.525 0.775,-2.146c0.388,-0.622 0.892,-1.121 1.512,-1.499c0.621,-0.405 1.396,-0.608 2.327,-0.608c0.93,0 1.706,0.203 2.326,0.608c0.646,0.378 1.151,0.877 1.512,1.499c0.388,0.621 0.66,1.336 0.815,2.146c0.155,0.811 0.232,1.634 0.232,2.472c0,0.837 -0.077,1.66 -0.232,2.471c-0.155,0.783 -0.427,1.498 -0.815,2.147c-0.361,0.621 -0.866,1.12 -1.512,1.498c-0.62,0.378 -1.396,0.567 -2.326,0.567c-0.931,0 -1.706,-0.189 -2.327,-0.567c-0.62,-0.378 -1.124,-0.877 -1.512,-1.498c-0.362,-0.649 -0.62,-1.364 -0.775,-2.147c-0.155,-0.811 -0.233,-1.634 -0.233,-2.471M309.161,40.682c0,1.674 0.246,3.186 0.737,4.536c0.491,1.351 1.189,2.512 2.094,3.484c0.905,0.945 1.99,1.675 3.257,2.188c1.266,0.513 2.688,0.769 4.265,0.769c1.577,0 2.998,-0.256 4.265,-0.769c1.292,-0.513 2.391,-1.243 3.296,-2.188c0.904,-0.972 1.602,-2.133 2.093,-3.484c0.492,-1.35 0.737,-2.862 0.737,-4.536c0,-1.675 -0.245,-3.187 -0.737,-4.537c-0.491,-1.378 -1.189,-2.539 -2.093,-3.484c-0.905,-0.972 -2.004,-1.715 -3.296,-2.228c-1.267,-0.54 -2.688,-0.81 -4.265,-0.81c-1.577,0 -2.999,0.27 -4.265,0.81c-1.267,0.513 -2.352,1.256 -3.257,2.228c-0.905,0.945 -1.603,2.106 -2.094,3.484c-0.491,1.35 -0.737,2.862 -0.737,4.537" style="fill:#000;fill-rule:nonzero;"/><path id="path3726" d="M333.485,30.19l0,20.943l5.506,0l0,-9.439c0,-0.945 0.09,-1.823 0.271,-2.633c0.181,-0.81 0.478,-1.512 0.892,-2.106c0.439,-0.621 1.008,-1.107 1.706,-1.459c0.698,-0.351 1.551,-0.526 2.559,-0.526c0.336,0 0.685,0.027 1.047,0.081c0.362,0.027 0.672,0.067 0.93,0.121l0,-5.347c-0.439,-0.135 -0.84,-0.202 -1.202,-0.202c-0.697,0 -1.37,0.108 -2.016,0.324c-0.646,0.216 -1.253,0.526 -1.822,0.931c-0.569,0.379 -1.073,0.851 -1.512,1.418c-0.44,0.54 -0.789,1.134 -1.047,1.783l-0.078,0l0,-3.889l-5.234,0" style="fill:#000;fill-rule:nonzero;"/><path id="path3728" d="M354.216,26.949l0,-4.739l-5.506,0l0,4.739l5.506,0M348.71,30.19l0,20.943l5.506,0l0,-20.943l-5.506,0" style="fill:#000;fill-rule:nonzero;"/><path id="path3730" d="M372.044,38.413l-8.956,0c0.026,-0.405 0.103,-0.864 0.232,-1.377c0.155,-0.513 0.401,-0.999 0.737,-1.459c0.362,-0.459 0.827,-0.837 1.396,-1.134c0.594,-0.324 1.331,-0.486 2.21,-0.486c1.344,0 2.339,0.378 2.985,1.134c0.673,0.757 1.138,1.864 1.396,3.322M363.088,42.059l14.462,0c0.103,-1.621 -0.026,-3.173 -0.388,-4.659c-0.362,-1.485 -0.956,-2.808 -1.783,-3.97c-0.802,-1.161 -1.835,-2.079 -3.102,-2.754c-1.267,-0.702 -2.753,-1.053 -4.459,-1.053c-1.525,0 -2.921,0.283 -4.187,0.85c-1.241,0.567 -2.314,1.351 -3.219,2.35c-0.904,0.972 -1.602,2.133 -2.093,3.484c-0.492,1.35 -0.737,2.808 -0.737,4.375c0,1.62 0.233,3.105 0.698,4.455c0.491,1.351 1.176,2.512 2.055,3.484c0.879,0.972 1.951,1.729 3.218,2.269c1.267,0.513 2.688,0.769 4.265,0.769c2.275,0 4.213,-0.54 5.816,-1.62c1.603,-1.08 2.792,-2.876 3.567,-5.388l-4.847,0c-0.18,0.649 -0.672,1.27 -1.473,1.864c-0.801,0.567 -1.758,0.85 -2.869,0.85c-1.551,0 -2.74,-0.418 -3.567,-1.255c-0.827,-0.837 -1.28,-2.188 -1.357,-4.051" style="fill:#000;fill-rule:nonzero;"/><path id="path3732" d="M385.081,44.327l-5.235,0c0.052,1.405 0.349,2.579 0.892,3.525c0.569,0.918 1.279,1.66 2.133,2.228c0.878,0.567 1.874,0.972 2.985,1.215c1.112,0.243 2.249,0.364 3.412,0.364c1.137,0 2.249,-0.121 3.335,-0.364c1.111,-0.216 2.093,-0.608 2.946,-1.175c0.853,-0.567 1.538,-1.31 2.055,-2.228c0.543,-0.945 0.815,-2.106 0.815,-3.484c0,-0.972 -0.181,-1.782 -0.543,-2.43c-0.362,-0.675 -0.84,-1.229 -1.435,-1.661c-0.594,-0.459 -1.279,-0.824 -2.055,-1.094c-0.749,-0.27 -1.525,-0.499 -2.326,-0.688c-0.776,-0.189 -1.538,-0.365 -2.288,-0.527c-0.749,-0.162 -1.422,-0.338 -2.016,-0.527c-0.569,-0.216 -1.034,-0.486 -1.396,-0.81c-0.362,-0.324 -0.543,-0.742 -0.543,-1.256c0,-0.432 0.104,-0.769 0.31,-1.012c0.207,-0.27 0.453,-0.473 0.737,-0.608c0.31,-0.135 0.646,-0.216 1.008,-0.243c0.362,-0.054 0.698,-0.081 1.008,-0.081c0.983,0 1.836,0.202 2.559,0.608c0.724,0.378 1.125,1.12 1.202,2.228l5.235,0c-0.104,-1.297 -0.427,-2.363 -0.97,-3.201c-0.517,-0.864 -1.176,-1.552 -1.977,-2.066c-0.801,-0.513 -1.719,-0.877 -2.753,-1.093c-1.008,-0.216 -2.055,-0.324 -3.141,-0.324c-1.085,0 -2.145,0.108 -3.179,0.324c-1.034,0.189 -1.964,0.54 -2.792,1.053c-0.827,0.486 -1.499,1.161 -2.016,2.025c-0.491,0.865 -0.737,1.972 -0.737,3.322c0,0.918 0.181,1.701 0.543,2.35c0.362,0.621 0.84,1.147 1.435,1.579c0.594,0.405 1.266,0.743 2.016,1.013c0.776,0.243 1.564,0.459 2.365,0.648c1.965,0.432 3.49,0.864 4.576,1.297c1.111,0.432 1.667,1.08 1.667,1.944c0,0.513 -0.117,0.945 -0.349,1.296c-0.233,0.324 -0.53,0.594 -0.892,0.81c-0.336,0.189 -0.724,0.338 -1.163,0.446c-0.414,0.081 -0.814,0.121 -1.202,0.121c-0.543,0 -1.073,-0.067 -1.59,-0.202c-0.491,-0.135 -0.93,-0.338 -1.318,-0.608c-0.388,-0.297 -0.711,-0.661 -0.969,-1.093c-0.233,-0.46 -0.349,-1 -0.349,-1.621" style="fill:#000;fill-rule:nonzero;"/></g></g></svg>