<?xml version="1.0" encoding="UTF-8" standalone="no"?>
<!-- Generator: Adobe Illustrator 12.0.0, SVG Export Plug-In  -->

<svg
   xmlns:dc="http://purl.org/dc/elements/1.1/"
   xmlns:cc="http://creativecommons.org/ns#"
   xmlns:rdf="http://www.w3.org/1999/02/22-rdf-syntax-ns#"
   xmlns:svg="http://www.w3.org/2000/svg"
   xmlns="http://www.w3.org/2000/svg"
   xmlns:sodipodi="http://sodipodi.sourceforge.net/DTD/sodipodi-0.dtd"
   xmlns:inkscape="http://www.inkscape.org/namespaces/inkscape"
   version="1.1"
   width="220"
   height="68"
   viewBox="-0.3779297 -0.8779297 220 68"
   enable-background="new -0.3779297 -0.8779297 501 176"
   xml:space="preserve"
   id="svg2985"
   inkscape:version="0.47 r22583"
   sodipodi:docname="Lucent_Technologies_logo (rework).svg"
   inkscape:export-filename="/home/sysop/Pictures/Logos/Bell Laboratories/Lucent_Technologies_logo (rework).png"
   inkscape:export-xdpi="90"
   inkscape:export-ydpi="90"><metadata
   id="metadata3159"><rdf:RDF><cc:Work
       rdf:about=""><dc:format>image/svg+xml</dc:format><dc:type
         rdf:resource="http://purl.org/dc/dcmitype/StillImage" /><dc:title></dc:title></cc:Work></rdf:RDF></metadata><sodipodi:namedview
   pagecolor="#ffffff"
   bordercolor="#666666"
   borderopacity="1"
   objecttolerance="10"
   gridtolerance="10"
   guidetolerance="10"
   inkscape:pageopacity="0"
   inkscape:pageshadow="2"
   inkscape:window-width="1024"
   inkscape:window-height="689"
   id="namedview3157"
   showgrid="false"
   inkscape:zoom="1.7811094"
   inkscape:cx="121.50528"
   inkscape:cy="31.821076"
   inkscape:window-x="0"
   inkscape:window-y="27"
   inkscape:window-maximized="1"
   inkscape:current-layer="svg2985" />
<defs
   id="defs2987"><inkscape:perspective
   sodipodi:type="inkscape:persp3d"
   inkscape:vp_x="0 : 88 : 1"
   inkscape:vp_y="0 : 1000 : 0"
   inkscape:vp_z="501 : 88 : 1"
   inkscape:persp3d-origin="250.5 : 58.666667 : 1"
   id="perspective3161" />
<inkscape:perspective
   id="perspective3234"
   inkscape:persp3d-origin="0.5 : 0.33333333 : 1"
   inkscape:vp_z="1 : 0.5 : 1"
   inkscape:vp_y="0 : 1000 : 0"
   inkscape:vp_x="0 : 0.5 : 1"
   sodipodi:type="inkscape:persp3d" /></defs>



















































































<g
   id="g6459"
   inkscape:export-filename="/home/sysop/Pictures/Logos/Bell Laboratories/Lucent_Technologies_logo (rework).png"
   inkscape:export-xdpi="42.206898"
   inkscape:export-ydpi="42.206898"
   transform="matrix(0.46675357,0,0,0.46675357,0.11345936,-0.30778667)"><g
     style="fill:#f00000;fill-opacity:1"
     transform="translate(-15.317383,-15.872531)"
     id="g5965"><path
       style="fill:#f00000;fill-opacity:1;stroke:none"
       d="m 426.5,17.25 c -0.23577,0.0082 -0.48364,0.0329 -0.71875,0.0625 -0.74219,0.08301 -1.7041,1.23047 -2.3125,1.3125 -1.65722,0.217285 -2.15039,-1.1333 -3.625,-0.96875 -0.19824,0.0098 -0.25095,0.670898 -0.34375,0.96875 -4.77344,0 -6.60644,0.793946 -9.5625,-0.96875 -2.15527,1.453614 -2.85351,0.604492 -5.9375,1.625 -5.88574,1.938477 -13.11426,3.401367 -19.125,5.9375 -1.58691,0.660645 -2.08496,2.783203 -2.3125,2.96875 -1.61621,1.238282 -2.46777,0.570313 -1.3125,2.3125 0.17578,0.258789 0.9268,1.19873 1,1.34375 -0.0417,-0.312807 0.3125,-0.34375 0.3125,-0.34375 0.11426,-0.339843 -0.20019,-1.359863 -0.3125,-1.96875 1.03027,-0.813964 8.11719,-3.3125 10.21875,-3.3125 -2.25586,2.081054 -3.27832,4.270997 -6.9375,3.3125 -1.92969,2.711426 -1.89551,4.624512 -3.96875,7.5625 -0.0703,-0.15332 -0.80469,0.09277 -0.96875,0 -0.99359,-0.575596 -0.74599,-1.128966 -0.53125,-1.375 -0.16417,0.127544 -0.47145,0.342344 -1.125,0.71875 -0.59766,0.330078 -1.1875,0.254883 -1.96875,0.65625 -3.95996,2 -10.52148,4.5625 -11.5625,8.59375 -0.69043,-0.628907 -1.28809,-0.997071 -1.96875,-1.65625 -1.04199,2.544922 -2.25781,2.175293 -4.9375,2.96875 -0.83594,5.288085 -3.55176,9.52539 -8.59375,11.875 0.3291,2.999023 0.10742,4.53223 -2.625,4.625 1.41406,2.578125 -0.34472,4.129883 -1.34375,6.59375 0,0 -0.6377,2.820312 0.34375,4.625 -1.26953,-0.422855 -1.88477,-0.178711 -2.96875,-0.34375 0.1875,0.145508 0.11621,0.825195 0.34375,1 0.49219,0.371094 0.96289,0.763183 1.3125,1 0.46289,0.31885 0.77539,0.146484 1.3125,0.3125 -0.0732,0.03174 0,0.91699 0,1 -0.51562,0.04004 -0.80762,0 -1.3125,0 1.71094,3.18457 0.004,7.098633 -0.65625,9.5625 0.36133,0.350097 1.82227,1.32666 1.96875,1.65625 0.35938,0.846191 0.0996,4.152344 0.65625,6.59375 0.90527,4.021484 3.46484,6.89941 3.96875,11.21875 0.15625,1.40039 -0.9678,2.07617 -1,2.3125 -0.26855,1.62891 0.59961,2.76758 1,4.28125 -1.35059,1.2793 -1.52832,1.50293 -2.3125,3.625 0.69141,-0.0518 2.625,0.3125 2.625,0.3125 1.64746,2.62988 1.11035,6.07813 2.65625,9.59375 0.41211,0.9375 2.5039,2.25098 2.96875,3.28125 0.60937,1.38184 0.31055,2.91211 0.96875,4.28125 0.56641,1.18652 2.95117,2.62305 3.3125,3.65625 0.0703,0.20508 -0.16602,1.17773 0,1.3125 2.24805,1.82324 1.60742,-0.31445 1.96875,-1.3125 0.95703,-2.70313 2.65625,0.3125 2.65625,0.3125 0,0 -1.40039,1.1875 1.3125,2.3125 3.28906,1.35938 6.0625,3.41113 8.90625,4.9375 -0.71094,0 -1.58008,-0.13379 -2.3125,0 0,0.083 0.0127,0.99 0,1 2.92969,0.85644 3.17969,2.67969 5.28125,1 l 0,1.96875 c 1.7207,0.82227 3.13086,-0.70312 4.625,0 1.82422,0.84473 1.60352,2.51367 1.3125,3.96875 3.08398,0.47461 5.48437,1.20703 7.90625,1.96875 4.41406,1.38086 10.03027,2.58203 16.84375,2.3125 0.0732,0.20801 0.47071,1.59575 0.65625,1.65625 l 0.65625,0 c 2.42188,-0.84375 8.74609,-0.4043 10.5625,-1.34375 0.49219,-0.26856 1.27539,-1.80859 1.65625,-2.28125 1.87793,0.96875 3.38672,0.95215 5.59375,0.3125 0,0 -1.0459,2.06934 0.65625,1.65625 0.55371,-0.14355 2.24317,-2.20801 2.65625,-2.3125 1.58887,-0.43262 4.17383,0.11035 6.90625,-0.34375 2.80274,-0.4834 7.21875,-2.67969 9.25,-2.96875 1.46484,-0.21679 1.9043,0.89649 3.625,0 0.84766,-0.45605 -2.60547,-0.90039 -3.625,-1.3125 0.95899,-0.95898 2.80079,-1.59571 3.625,-2.625 0.87696,-1.11328 0.91602,-2.81152 1.96875,-3.625 1.93848,-1.53515 4.52734,-3.12891 7.28125,-3.65625 1.4121,-4.24512 5.05567,-4.50196 7.25,-7.5625 3.51563,-4.9375 7.27735,-11.06836 9.875,-16.5 0.90528,-1.91699 0.792,-3.78027 1.65625,-5.59375 0.29981,0.01 0.91895,0.16308 1.3125,0 0.36133,-0.16602 0.23437,-0.80469 0.6875,-1 -0.3711,-3.28515 -0.75781,-5.35449 -1.65625,-7.59375 1.67286,-1.61523 1.63477,-4.863281 0.65625,-5.59375 2.33887,-1.330078 1.72657,-3.34375 -0.65625,-4.3125 3.42383,-1.0625 2.25781,-2.413086 0.96875,-4.9375 1.82324,-0.464844 1.67774,-1.110352 2.65625,-1.65625 -0.34179,-1.979492 -0.7041,-2.204589 -2.3125,-2.96875 0.42281,-1.020507 1.36523,-1.903809 0.34375,-3.625 -0.10157,-0.165039 -1.06446,-0.23096 -1.34375,-0.3125 0,0 1.51856,-1.199219 2.3125,-1.34375 -2.25879,-0.917969 -2.54004,-1.481446 -1.3125,-3.625 -1.2373,-0.638672 -2.08789,-0.797363 -3.3125,-1.3125 0.0293,-0.02197 1.39942,-0.93848 1.65625,-1 -0.72949,-1.421875 -1.17968,-1.394531 -2.625,-2.3125 1.99024,-3.710937 -3.67383,-4.940429 -0.34375,-7.25 -3.56445,-1.628418 -3.70996,-6.418946 -7.59375,-6.59375 0.7002,-0.206055 3.29981,-1.511719 3.96875,-1.65625 -3.07129,-0.143555 -5.28418,-3.446289 -8.5625,-5.28125 0.25781,-0.06055 2.06836,-0.87744 2.625,-0.96875 -2.56836,-1.381836 -2.04101,-2.896972 -2.96875,-4.96875 -0.62988,-1.381836 -5.35058,-4.666015 -6.9375,-5.59375 1.34082,-0.34082 -0.67968,-3.249512 -0.96875,-4.28125 -2.20703,-0.174316 -3.46191,-0.32324 -4.96875,-0.34375 0.39356,-1.371093 0.29492,-1.792968 0.6875,-2.96875 -2.70215,-1.680664 -5.1582,-4.625 -9.25,-4.625 0.11524,-0.700195 -1.09473,-3.493164 -2.3125,-3.9375 -1.62891,-0.598144 -4.45312,0.106445 -5.9375,0.3125 C 433.55591,19.332397 430.03657,17.126708 426.5,17.25 z m -15.90625,7 c 3.19531,-0.102539 -0.8457,1.270508 -1.96875,1.3125 -0.0508,0.103516 -0.5127,1.521484 -0.65625,1.65625 2.07031,-0.238281 2.91113,-0.07129 4.28125,1 0.45312,-0.412109 0.19043,-0.872559 0.34375,-1.65625 3.20605,-0.484863 5.67676,1.084961 7.59375,1.3125 2.3291,0.257324 0.11523,-1.649902 1.3125,-1.96875 2.54297,-0.690918 19.53906,7.356445 20.4375,8.5625 0.32031,0.433105 -0.0596,1.910644 0.34375,2.3125 0.16309,0.164551 1.06543,-0.09277 1.3125,0 1.22754,0.411133 3.32031,3.834961 3.96875,4.9375 -0.0312,0.01074 0.23926,1.388672 0.3125,1.65625 -2.63867,0.597656 -3.73438,1.076172 -6.25,0.34375 0,0 1.54004,-0.384277 1.3125,-0.34375 1.93945,-0.515625 4.43457,-1.3125 1.3125,-2.3125 -1.04199,-0.34082 -3.19922,-0.350586 -4.28125,-0.96875 -1.41016,-0.802734 -0.70801,-3.868164 -2.65625,-4.3125 -2.7002,-0.628906 -3.43945,0.910156 -3.625,2.3125 -3.18652,0.102539 -4.75391,-2.237305 -7.25,-2.96875 -1.64746,-0.484375 -3.65137,-0.357422 -4.9375,-0.65625 -4.22852,-1 -9.80664,-1.811523 -15.1875,-0.65625 -5.26953,1.113281 -15.95117,8.823242 -21.4375,5.9375 -0.67871,0.494141 0.59473,1.62793 -2.3125,2.96875 0.14648,-0.145508 0.41211,-1.871582 1,-2.625 0.94727,-1.226562 1.87891,-0.436523 3.28125,-1.34375 0.59766,-0.401367 0.0508,-1.185547 0,-1.96875 3.12207,-1.010742 5.30469,-1.992676 8.59375,-3.3125 4.28906,-1.731934 6.07422,-1.625 12.1875,-1.625 0.17383,-0.546875 0.26465,-1.772949 0.6875,-2 0.42285,-0.246582 2.4707,-0.30127 2.625,-0.3125 -2.27832,-0.361328 -6.3584,1.505859 -8.5625,0.96875 -0.62988,-0.153809 0.0693,-1.22168 -0.34375,-1.625 0.12402,-0.07178 0.55469,-1.178711 0.65625,-1.34375 C 403.75977,27.850098 405,27.875 405,27.875 c 2.24609,-1.0625 2.59375,-3.541992 5.59375,-3.625 z m 19.46875,0.65625 c 1.00781,0.257324 2.71387,1.512207 3.3125,1.65625 4.51367,1.041504 7.41016,-0.219727 12.53125,1.65625 1.58984,0.577637 5.08594,6.847168 6.28125,7.25 0.48438,0.153809 1.59766,-0.289551 1.96875,0 0.20703,0.153809 -0.0937,1.398926 0,1.65625 0.48535,1.371094 2.7373,2.710938 3.28125,3.9375 0.43457,1 -0.21484,2.797363 0,3.3125 0.15625,0.380859 1.61914,0.75293 2,0.96875 0,0 -1.28027,0.959473 -1.34375,1 -1.73047,-1.319824 -5.54199,-3.635742 -6.59375,-5.59375 -0.24707,-0.463867 0.0488,-1.473633 -0.3125,-2 -0.98926,-1.442871 -6.84082,-5.264648 -8.59375,-6.59375 -0.36133,-0.268555 -0.32617,-1.771973 -0.65625,-1.96875 -0.54688,-0.32959 -1.67285,0.154785 -2.3125,0 -3.00098,-0.763184 -7.8125,-4.147461 -9.5625,-5.28125 z m -10,0.625 c 0.4507,0.01607 0.6488,0.483093 0.125,0.375 0.79395,0.390625 -1.28125,-0.126953 -0.34375,-0.34375 0.0735,-0.01807 0.15436,-0.03355 0.21875,-0.03125 z M 385.875,26.875 c 1.03027,0.113281 2.34961,0.367187 0.96875,0.65625 C 385.7207,27.747559 385.875,26.875 385.875,26.875 z m 24.0625,11.21875 c 1.79199,-0.144043 -0.94336,2.341797 -2.3125,2.3125 -1.9707,-0.0625 2.05371,-2.302734 2.3125,-2.3125 z m -13.96875,3.5625 c 1.28828,-0.04247 2.5896,0.637574 3.09375,0.71875 5.18555,0.772949 7.77441,-1.601562 13.1875,-0.3125 1.13281,0.268555 2.19922,2.209961 3.3125,2.3125 2.26855,0.196777 4.52539,-1.154785 7.90625,0 3.18652,1.071777 7.49219,5.350098 10.5625,5.9375 4.45313,0.846191 2.58008,-1.91748 0.3125,-2.96875 0.35156,-2.08252 0.37988,-2.181641 -2.28125,-2.65625 0.40332,-0.751953 1.02148,-1.454102 1.3125,-1.96875 0,0 0.73535,0.0039 0.3125,0.3125 1.1748,0.825195 2.58594,0.800781 3.96875,1.65625 1.78418,1.09375 2.48437,4.078613 2.96875,5.625 -0.39062,-0.07178 -0.91406,-0.436523 -1.65625,-0.34375 0,0.21582 0.1123,1.583984 0,1.65625 3.61816,3.267578 6.08887,7.545898 9.5625,10.875 -0.43262,0.05127 -2.24121,0.605469 -2.625,0.65625 l -0.34375,0.65625 c 4.73145,0.248047 4.91406,2.730957 5.625,7.9375 -0.29883,-0.07227 -1.3125,-0.34375 -1.3125,-0.34375 0,0.175781 0.0918,1.603516 0,1.65625 5.42188,7.173828 2.30762,11.209961 4.9375,20.125 -0.95996,0.856445 -2.41992,1.767578 -2.625,3.28125 -0.14648,1.022461 0.98828,3.253906 0.96875,3.65625 -0.0928,1.32812 -2.03906,3.29297 -2.625,4.28125 2.4834,1.34082 4.58398,2.67187 3.625,5.9375 -1.62891,-0.10156 -3.70605,0.13477 -5.625,0 -0.1123,2.94922 2.18066,2.74902 1.65625,5.59375 -0.48535,2.56543 -13.0166,7.11523 -7.59375,8.25 -1.15527,0.58594 -3.41016,3.34277 -1.625,2.3125 -0.084,0.10254 -0.75781,0.96777 -0.6875,1 -3.90625,-0.83594 -5.09863,1.73535 -8.5625,3.28125 -6.86523,3.03027 -21.61523,2.55078 -28.6875,0.34375 -1.32031,-0.41211 -2.15723,-2.64844 -3.3125,-2.96875 -1.09375,-0.31934 -2.26758,0.53906 -2.96875,0.3125 -0.99023,-0.33008 -5.59375,-6.68066 -7.59375,-7.90625 -2.79297,-1.72168 -10.73828,-7.15625 -11.53125,-10.21875 -0.13477,-0.48242 0.71777,-0.95605 0.65625,-1.65625 -0.30957,-3.08301 -2.875,-4.70508 -1.96875,-8.25 -0.6084,-0.30078 -1.19043,0.003 -1.34375,-0.65625 -0.30078,-1.217773 0.69824,-1.705078 0.65625,-2.3125 -0.041,-0.463867 -1.21875,-1.337891 -1.3125,-1.96875 -0.52734,-3.431641 0.0215,-5.637207 -0.96875,-8.90625 1.125,-0.638184 2.17383,-1.034668 2.625,-2.3125 1.04297,-3.000976 -0.35156,-4.198242 1.96875,-6.28125 -2.7832,-7.989258 -5.60938,-1.63916 -10.21875,-1.96875 1.58691,-3.257812 1.28906,-7.679199 2.96875,-10.875 0.94043,-1.793457 4.94336,-4.772949 6.59375,-5.9375 0.89648,-0.649414 2.47754,-0.299805 3.3125,-1 0.79297,-0.689941 -0.25391,-1.686035 0.3125,-2.625 0.58789,-0.988281 3.08594,-2.474121 4.3125,-2.96875 0,-0.289551 -0.19531,-1.410156 0,-1.65625 1.125,-1.474609 5.17773,-1.786621 7.25,-2.3125 0,0 0.22852,-0.782715 0.3125,-1 -0.85547,-0.350586 -0.87109,-0.731934 -1.3125,-0.96875 4.60645,-0.515137 7.62207,-2.370117 12.21875,-2.96875 -3.47363,-0.978516 -9.04492,-0.181641 -12.21875,0.3125 0.0605,-0.03174 0,-1.178711 0,-1.3125 1.73047,0 3.04102,-0.449707 3.96875,-0.65625 l 0,-0.34375 c 0.18188,-0.03979 0.34721,-0.05643 0.53125,-0.0625 z M 452.1875,47 l 0.65625,0 c 1.24707,2.216797 3.41602,3.432617 4.28125,5.9375 0,0 0.92773,1.175781 0,1 -2.09277,-0.411621 -3.37207,-4.937988 -4.9375,-6.9375 z m 6,35.375 c 1.02313,0.520379 0.25,1.90625 0.25,1.90625 -1.32568,0.579987 0.0422,-1.475634 -0.25,-1.90625 z"
       transform="translate(-0.3779297,-0.8779297)"
       id="path2991" /><path
       clip-rule="evenodd"
       stroke-miterlimit="2.6131001"
       d="m 451.13281,26.336914 c 0.49512,0 0.49512,0.65918 0,0.65918 -0.50488,0 -0.50488,-0.65918 0,-0.65918 l 0,0 0,0 0,0 0,0 z"
       id="path2999"
       style="fill:#f00000;fill-opacity:1;fill-rule:evenodd;stroke:none" /><path
       clip-rule="evenodd"
       stroke-miterlimit="2.6131001"
       d="m 376.91113,27.984375 c 0.25684,-0.195313 -0.3291,2.062012 -0.66113,2.30957 -0.29785,0.206543 0.15625,-1.948242 0.66113,-2.30957 l 0,0 0,0 0,0 0,0 z"
       id="path3001"
       style="fill:#f00000;fill-opacity:1;fill-rule:evenodd;stroke:none" /><path
       clip-rule="evenodd"
       stroke-miterlimit="2.6131001"
       d="m 371.30371,31.613769 c 0.98828,-0.195312 0.33008,0.65918 0.33008,0.65918 -0.31055,-0.123535 -1.24805,-0.484863 -0.33008,-0.65918 l 0,0 0,0 0,0 0,0 z"
       id="path3003"
       style="fill:#f00000;fill-opacity:1;fill-rule:evenodd;stroke:none" /><path
       clip-rule="evenodd"
       stroke-miterlimit="2.6131001"
       d="m 374.27246,31.943359 c 1.29883,-0.206054 2.3291,0.742188 0.98828,0.990235 -0.79297,0.132812 -2.07226,-0.834961 -0.98828,-0.990235 l 0,0 0,0 0,0 0,0 z"
       id="path3005"
       style="fill:#f00000;fill-opacity:1;fill-rule:evenodd;stroke:none" /><path
       stroke-miterlimit="2.6131001"
       d="m 398.35449,32.272949 c 0.36914,0.185547 -0.33203,0.660645 -0.33203,0.660645 0.0635,-0.248047 -0.16406,-0.907227 0.33203,-0.660645 m 0,0 0,0 0,0"
       id="path3007"
       style="fill:#f00000;fill-opacity:1;stroke:none" /><path
       clip-rule="evenodd"
       stroke-miterlimit="2.6131001"
       d="m 431.99902,32.272949 c 0.6084,-0.05127 0.38379,0.588379 -0.3291,0.660645 -0.74219,0.06055 0.083,-0.649414 0.3291,-0.660645 l 0,0 0,0 0,0 0,0 z"
       id="path3009"
       style="fill:#f00000;fill-opacity:1;fill-rule:evenodd;stroke:none" /><path
       clip-rule="evenodd"
       stroke-miterlimit="2.6131001"
       d="m 366.68457,33.262695 c -0.40234,1.113282 -0.98828,1.649414 -0.98828,1.649414 -0.83594,0.669922 0.58594,-1.329101 0.98828,-1.649414 l 0,0 0,0 0,0 0,0 z"
       id="path3011"
       style="fill:#f00000;fill-opacity:1;fill-rule:evenodd;stroke:none" /><path
       clip-rule="evenodd"
       stroke-miterlimit="2.6131001"
       d="m 369.9834,33.262695 c 1.89648,0.351563 0.51465,1.215821 0.99023,1.649414 0,0 -2.38281,-1.917968 -0.99023,-1.649414 l 0,0 0,0 0,0 0,0 z"
       id="path3013"
       style="fill:#f00000;fill-opacity:1;fill-rule:evenodd;stroke:none" /><path
       clip-rule="evenodd"
       stroke-miterlimit="2.6131001"
       d="m 397.03418,33.262695 c 0.25586,0.021 1.08105,0.72168 0.3291,0.660645 -0.64941,-0.06201 -0.97949,-0.721192 -0.3291,-0.660645 l 0,0 0,0 0,0 0,0 z"
       id="path3015"
       style="fill:#f00000;fill-opacity:1;fill-rule:evenodd;stroke:none" /><path
       clip-rule="evenodd"
       stroke-miterlimit="2.6131001"
       d="m 364.70703,35.572266 c 0.67871,-0.278321 0.0713,2.783203 -0.33203,3.298828 -0.47363,0.586914 -1.53613,0.617187 -2.30957,0.989746 2.05273,3.91748 -3.67969,5.40039 -7.58789,5.276855 0,0 -0.98828,0.268555 -0.32715,-0.329101 1.24512,-1.155274 2.99805,-0.681641 4.61621,-1.649414 0.18555,-0.124512 2.25879,-4.619141 0.98926,-4.619141 5.52734,1.062012 2.09473,-1.854492 4.95117,-2.967773 l 0,0 0,0 0,0 0,0 z"
       id="path3017"
       style="fill:#f00000;fill-opacity:1;fill-rule:evenodd;stroke:none" /><path
       clip-rule="evenodd"
       stroke-miterlimit="2.6131001"
       d="m 405.61035,41.839844 c 0.55664,-0.04199 0.56641,1.24707 -0.33008,1.319336 -0.79297,0.05127 -0.11425,-1.298828 0.33008,-1.319336 l 0,0 0,0 0,0 0,0 z"
       id="path3023"
       style="fill:#f00000;fill-opacity:1;fill-rule:evenodd;stroke:none" /><path
       clip-rule="evenodd"
       stroke-miterlimit="2.6131001"
       d="m 410.55957,42.499023 c 0.70996,-0.03076 0.9375,0.628418 0.3291,0.660157 -0.64941,0.02051 -0.97949,-0.639649 -0.3291,-0.660157 l 0,0 0,0 0,0 0,0 z"
       id="path3025"
       style="fill:#f00000;fill-opacity:1;fill-rule:evenodd;stroke:none" /><path
       clip-rule="evenodd"
       stroke-miterlimit="2.6131001"
       d="m 400.99121,43.818359 c 0.50586,-0.02051 6.30859,-0.06104 3.63086,0.990235 -1.50684,0.577148 -5.30078,-0.938965 -3.63086,-0.990235 l 0,0 0,0 0,0 0,0 z"
       id="path3027"
       style="fill:#f00000;fill-opacity:1;fill-rule:evenodd;stroke:none" /><path
       clip-rule="evenodd"
       stroke-miterlimit="2.6131001"
       d="m 466.96777,47.777344 c 0.41211,0.175781 1.45313,1.514648 0.98828,1.319336 -0.59765,-0.257813 -1.48437,-1.535645 -0.98828,-1.319336 l 0,0 0,0 0,0 0,0 z"
       id="path3031"
       style="fill:#f00000;fill-opacity:1;fill-rule:evenodd;stroke:none" /><path
       clip-rule="evenodd"
       stroke-miterlimit="2.6131001"
       d="m 351.51074,48.106445 c 1.45313,0.814453 2.33985,1.114746 0.33008,1.319824 -2.37109,0.237793 -1.11328,-0.06201 -0.33008,-1.319824 l 0,0 0,0 0,0 0,0 z"
       id="path3033"
       style="fill:#f00000;fill-opacity:1;fill-rule:evenodd;stroke:none" /><path
       clip-rule="evenodd"
       stroke-miterlimit="2.6131001"
       d="m 349.53125,50.086914 -1.32129,1.648926 0,0 c 0.45508,-0.422363 0.83594,-1.194824 1.32129,-1.648926 l 0,0 0,0 0,0 0,0 z"
       id="path3035"
       style="fill:#f00000;fill-opacity:1;fill-rule:evenodd;stroke:none" /><path
       clip-rule="evenodd"
       stroke-miterlimit="2.6131001"
       d="m 386.80664,50.416016 -0.65918,1.319824 0,0 c 0.35156,-0.938965 -0.0732,-0.81543 0.65918,-1.319824 l 0,0 0,0 0,0 0,0 z"
       id="path3037"
       style="fill:#f00000;fill-opacity:1;fill-rule:evenodd;stroke:none" /><path
       clip-rule="evenodd"
       stroke-miterlimit="2.6131001"
       d="m 344.25293,65.918945 c 0.59766,0.11377 0.97852,1.772461 0.33008,1.649414 -0.58887,-0.123047 -0.97949,-1.782226 -0.33008,-1.649414 l 0,0 0,0 0,0 0,0 z"
       id="path3039"
       style="fill:#f00000;fill-opacity:1;fill-rule:evenodd;stroke:none" /><path
       clip-rule="evenodd"
       stroke-miterlimit="2.6131001"
       d="m 340.625,70.868164 c 0.66895,-0.03223 0.99902,0.628418 0.3291,0.65918 -0.64844,0.02051 -0.97851,-0.638672 -0.3291,-0.65918 l 0,0 0,0 0,0 0,0 z"
       id="path3041"
       style="fill:#f00000;fill-opacity:1;fill-rule:evenodd;stroke:none" /><path
       clip-rule="evenodd"
       stroke-miterlimit="2.6131001"
       d="m 347.22168,109.13086 c 0.71094,0.0615 0.9375,0.70019 0.33008,0.65918 -0.24707,-0.0195 -1.07227,-0.73242 -0.33008,-0.65918 l 0,0 0,0 0,0 0,0 z"
       id="path3045"
       style="fill:#f00000;fill-opacity:1;fill-rule:evenodd;stroke:none" /><path
       clip-rule="evenodd"
       stroke-miterlimit="2.6131001"
       d="m 347.55176,110.12012 c 0.44336,0.16601 0.01,1.43554 0,1.32031 -0.53516,0 -0.44239,-1.49414 0,-1.32031 l 0,0 0,0 0,0 0,0 z"
       id="path3047"
       style="fill:#f00000;fill-opacity:1;fill-rule:evenodd;stroke:none" /><path
       clip-rule="evenodd"
       stroke-miterlimit="2.6131001"
       d="m 446.5166,115.39746 c 0.57617,-0.23633 -0.33203,1.37305 -0.99219,1.65039 -0.53418,0.20508 0.53711,-1.47461 0.99219,-1.65039 l 0,0 0,0 0,0 0,0 z"
       id="path3049"
       style="fill:#f00000;fill-opacity:1;fill-rule:evenodd;stroke:none" /><path
       clip-rule="evenodd"
       stroke-miterlimit="2.6131001"
       d="m 363.05664,139.47754 c 0.41309,0.17578 0.92773,1.56738 0.3291,1.32031 -0.16601,-0.0723 -0.9375,-1.58887 -0.3291,-1.32031 l 0,0 0,0 0,0 0,0 z"
       id="path3051"
       style="fill:#f00000;fill-opacity:1;fill-rule:evenodd;stroke:none" /><path
       clip-rule="evenodd"
       stroke-miterlimit="2.6131001"
       d="m 365.03613,142.11621 c 0.39063,0.10352 0.52539,0.76465 0,0.66016 0,0 -0.9082,-0.90625 0,-0.66016 l 0,0 0,0 0,0 0,0 z"
       id="path3053"
       style="fill:#f00000;fill-opacity:1;fill-rule:evenodd;stroke:none" /><path
       clip-rule="evenodd"
       stroke-miterlimit="2.6131001"
       d="m 367.67578,145.08496 c 0.32715,0.13477 1.31836,1.58789 0.65918,1.32129 -0.35156,-0.14355 -1.28906,-1.58887 -0.65918,-1.32129 l 0,0 0,0 0,0 0,0 z"
       id="path3055"
       style="fill:#f00000;fill-opacity:1;fill-rule:evenodd;stroke:none" /><path
       clip-rule="evenodd"
       stroke-miterlimit="2.6131001"
       d="m 371.96289,149.375 c 0.33887,0.15332 1.19629,1.22559 0.65918,0.98926 -0.18555,-0.084 -1.28906,-1.26758 -0.65918,-0.98926 l 0,0 0,0 0,0 0,0 z"
       id="path3057"
       style="fill:#f00000;fill-opacity:1;fill-rule:evenodd;stroke:none" /><path
       clip-rule="evenodd"
       stroke-miterlimit="2.6131001"
       d="m 382.51953,150.36426 c 1.74121,0.13379 0.3291,1.35937 0.65918,1.64746 0,0 -2.15625,-1.77051 -0.65918,-1.64746 l 0,0 0,0 0,0 0,0 z"
       id="path3059"
       style="fill:#f00000;fill-opacity:1;fill-rule:evenodd;stroke:none" /><path
       clip-rule="evenodd"
       stroke-miterlimit="2.6131001"
       d="m 374.27246,151.35449 c 0.34961,0.0811 0.96875,0.81348 0.33008,0.65723 -0.31055,-0.0811 -0.92774,-0.80371 -0.33008,-0.65723 l 0,0 0,0 0,0 0,0 z"
       id="path3061"
       style="fill:#f00000;fill-opacity:1;fill-rule:evenodd;stroke:none" /><path
       clip-rule="evenodd"
       stroke-miterlimit="2.6131001"
       d="m 375.9209,152.67285 c 0.48535,0 0.48535,0.33008 0,0.33008 -0.44238,0 -0.44238,-0.33008 0,-0.33008 l 0,0 0,0 0,0 0,0 z"
       id="path3063"
       style="fill:#f00000;fill-opacity:1;fill-rule:evenodd;stroke:none" /><path
       clip-rule="evenodd"
       stroke-miterlimit="2.6131001"
       d="m 377.57129,153.66211 c 0.53711,0.19531 1.80371,1.16504 1.31836,0.98926 -0.54492,-0.20508 -1.72168,-1.14258 -1.31836,-0.98926 l 0,0 0,0 0,0 0,0 z"
       id="path3065"
       style="fill:#f00000;fill-opacity:1;fill-rule:evenodd;stroke:none" /></g><g
     id="g6438"><path
       clip-rule="evenodd"
       d="m 110.81787,104.80813 v 16.45118 h 4.2544 l 0,0 c 0.77637,0 5.42969,-0.0469 5.42969,-4.62891 0,-1.95117 -1.34082,-3.52539 -3.31446,-3.90234 l 0,0 v -0.0703 l 0,0 c 2.13867,-0.70507 2.84424,-2.16308 2.84424,-3.71289 0,-2.23242 -1.38672,-4.13672 -4.81787,-4.13672 l 0,0 h -4.396 l 0,0 0,0 0,0 z m 1.55127,1.34082 h 2.67969 l 0,0 c 1.80908,0 3.31445,0.82032 3.31445,2.81934 0,1.78516 -1.17578,3.125 -3.3623,3.125 l 0,0 h -2.63184 v -5.94434 l 0,0 0,0 0,0 z m 0,7.28516 h 2.65625 l 0,0 c 2.20996,0 3.80762,1.17481 3.80762,3.21777 0,3.00977 -2.58545,3.26954 -3.97217,3.26954 l 0,0 h -2.4917 v -6.48731 l 0,0 0,0 0,0 z"
       id="path3069"
       style="fill:#000000;fill-opacity:1;fill-rule:evenodd;stroke:#000000;stroke-width:0.25;stroke-miterlimit:3.22173953;stroke-opacity:1;stroke-dasharray:none" /><path
       clip-rule="evenodd"
       d="m 131.64453,115.66556 v -0.46875 l 0,0 c 0,-2.0918 -0.33007,-6.18164 -4.81836,-6.18164 -3.05664,0 -5.24169,2.23144 -5.24169,6.01562 0,4.13867 2.09228,6.41602 5.52392,6.41602 1.22168,0 2.396,-0.13868 3.61914,-0.65625 l 0,0 v -1.36329 l 0,0 c -1.19873,0.6084 -2.37402,0.77442 -3.59619,0.77442 -3.43115,0 -4.01855,-3.05371 -3.99561,-4.53613 l 0,0 h 8.50879 l 0,0 0,0 0,0 z m -8.50879,-1.24512 c 0.0469,-2.02149 1.24512,-4.16016 3.69043,-4.16016 3.125,0 3.28858,3.19629 3.26661,4.16016 l 0,0 h -6.95704 l 0,0 0,0 0,0 z"
       id="path3071"
       style="fill:#000000;fill-opacity:1;fill-rule:evenodd;stroke:#000000;stroke-width:0.25;stroke-miterlimit:3.22173953;stroke-opacity:1;stroke-dasharray:none" /><polygon
       clip-rule="evenodd"
       points="148.37402,119.22363 148.37402,137.13184 149.85596,137.13184 149.85596,119.22363 148.37402,119.22363 148.37402,119.22363 148.37402,119.22363 "
       id="polygon3073"
       style="fill:#000000;fill-opacity:1;fill-rule:evenodd;stroke:#000000;stroke-width:0.25;stroke-miterlimit:3.22173953;stroke-opacity:1;stroke-dasharray:none"
       transform="translate(-15.317383,-15.872531)" /><polygon
       clip-rule="evenodd"
       points="152.22412,119.22363 152.22412,137.13184 153.70508,137.13184 153.70508,119.22363 152.22412,119.22363 152.22412,119.22363 152.22412,119.22363 "
       id="polygon3075"
       style="fill:#000000;fill-opacity:1;fill-rule:evenodd;stroke:#000000;stroke-width:0.25;stroke-miterlimit:3.22173953;stroke-opacity:1;stroke-dasharray:none"
       transform="translate(-15.317383,-15.872531)" /><polygon
       clip-rule="evenodd"
       points="163.4043,137.13184 171.67871,137.13184 171.67871,135.79395 164.95605,135.79395 164.95605,120.68066 163.4043,120.68066 163.4043,120.68066 163.4043,120.68066 163.4043,120.68066 "
       id="polygon3077"
       style="fill:#000000;fill-opacity:1;fill-rule:evenodd;stroke:#000000;stroke-width:0.25;stroke-miterlimit:3.22173953;stroke-opacity:1;stroke-dasharray:none"
       transform="translate(-15.317383,-15.872531)" /><path
       clip-rule="evenodd"
       d="m 157.76758,111.17825 c 1.15088,-0.63769 2.42041,-0.91797 3.5957,-0.91797 2.74903,0 2.77246,2.37305 2.77246,3.21973 l 0,0 v 0.42285 h -0.77539 l 0,0 c -2.44336,0 -6.91015,0.18848 -6.91015,4.13574 0,1.85742 1.34033,3.40821 3.94922,3.40821 1.29248,0 2.91504,-0.37598 3.92578,-2.23145 l 0,0 h 0.0459 v 2.04395 h 1.3164 l -0.0698,-2.63282 v -5.12402 l 0,0 c 0,-1.64355 -0.35401,-4.4873 -4.2544,-4.4873 -1.41113,0 -2.58496,0.30468 -3.5957,0.75195 l 0,0 v 1.41113 l 0,0 0,0 0,0 z m 6.36816,3.96973 v 0.87109 l 0,0 c 0,2.63281 -1.45605,4.18262 -3.75976,4.18262 -1.36328,0 -2.37402,-0.96387 -2.37402,-2.25586 0,-2.42188 2.58642,-2.79785 4.79345,-2.79785 l 0,0 h 1.34033 l 0,0 0,0 0,0 z"
       id="path3079"
       style="fill:#000000;fill-opacity:1;fill-rule:evenodd;stroke:#000000;stroke-width:0.25;stroke-miterlimit:3.22173953;stroke-opacity:1;stroke-dasharray:none" /><path
       clip-rule="evenodd"
       d="m 168.11914,103.3511 v 15.58106 l -0.0942,2.32715 h 1.38671 l 0.0244,-2.49024 h 0.0708 l 0,0 c 0.67969,1.50391 1.97266,2.67774 3.73633,2.67774 2.70312,0 5.19433,-1.71387 5.19433,-6.20313 0,-4.46582 -2.51465,-6.22851 -5.19433,-6.22851 -1.22266,0 -2.63282,0.49316 -3.64356,2.34863 l 0,0 v -8.0127 h -1.48047 l 0,0 0,0 0,0 z m 1.48047,11.89258 c 0,-3.83105 2.23242,-4.9834 3.64356,-4.9834 1.40918,0 3.64258,1.15235 3.64258,4.9834 0,3.7832 -2.2334,4.95801 -3.64258,4.95801 -1.41114,0 -3.64356,-1.17481 -3.64356,-4.95801 l 0,0 0,0 0,0 0,0 z"
       id="path3081"
       style="fill:#000000;fill-opacity:1;fill-rule:evenodd;stroke:#000000;stroke-width:0.25;stroke-miterlimit:3.22173953;stroke-opacity:1;stroke-dasharray:none" /><path
       clip-rule="evenodd"
       d="m 186.35157,109.64993 c -0.96338,-0.44726 -1.83399,-0.63476 -2.86768,-0.63476 -2.32666,0 -4.0415,1.08203 -4.0415,2.9375 0,2.02148 1.55127,2.77343 3.10156,3.4541 1.62109,0.70605 2.67969,1.05761 2.67969,2.61035 0,1.38672 -1.08204,2.18457 -2.72608,2.18457 -0.96435,0 -2.06885,-0.21192 -3.12646,-0.70606 l 0,0 -0.0937,1.41211 0,0 c 1.12793,0.40039 2.11425,0.53907 3.17285,0.53907 3.14941,0 4.32324,-1.78516 4.32324,-3.42969 0,-2.09277 -1.62109,-2.96192 -2.77197,-3.45508 -2.06885,-0.91797 -3.10303,-1.17676 -3.10303,-2.60937 0,-1.36329 1.36328,-1.69239 2.51563,-1.69239 1.10351,0 1.95117,0.18848 2.84326,0.56348 l 0,0 0.0942,-1.17383 0,0 0,0 0,0 z"
       id="path3083"
       style="fill:#000000;fill-opacity:1;fill-rule:evenodd;stroke:#000000;stroke-width:0.25;stroke-miterlimit:3.22173953;stroke-opacity:1;stroke-dasharray:none" /><polygon
       clip-rule="evenodd"
       points="211.08301,120.68066 211.08301,137.13184 212.63428,137.13184 212.63428,120.68066 211.08301,120.68066 211.08301,120.68066 211.08301,120.68066 "
       id="polygon3085"
       style="fill:#000000;fill-opacity:1;fill-rule:evenodd;stroke:#000000;stroke-width:0.25;stroke-miterlimit:3.22173953;stroke-opacity:1;stroke-dasharray:none"
       transform="translate(-15.317383,-15.872531)" /><path
       clip-rule="evenodd"
       d="m 201.68213,121.25931 v -7.02735 l 0,0 c 0,-2.16211 1.50391,-3.97168 3.54834,-3.97168 2.98486,0 2.96192,2.06739 2.96192,3.57129 l 0,0 v 7.42774 h 1.48046 v -7.49805 l 0,0 c 0,-1.83106 -0.35253,-4.74609 -4.23095,-4.74609 -0.56397,0 -2.86768,0.16406 -3.94776,2.67773 l 0,0 h -0.0479 v -2.49023 h -1.31543 l 0.0703,2.77343 v 9.28321 h 1.48096 l 0,0 0,0 0,0 z"
       id="path3087"
       style="fill:#000000;fill-opacity:1;fill-rule:evenodd;stroke:#000000;stroke-width:0.25;stroke-miterlimit:3.22173953;stroke-opacity:1;stroke-dasharray:none" /><path
       clip-rule="evenodd"
       d="m 213.58399,121.25931 v -7.02735 l 0,0 c 0,-2.16211 1.5039,-3.97168 3.54883,-3.97168 2.98437,0 2.96093,2.06739 2.96093,3.57129 l 0,0 v 7.42774 h 1.48096 v -7.49805 l 0,0 c 0,-1.83106 -0.35303,-4.74609 -4.22998,-4.74609 -0.56494,0 -2.86719,0.16406 -3.94873,2.67773 l 0,0 h -0.0464 v -2.49023 h -1.31592 l 0.0698,2.77343 v 9.28321 h 1.48047 l 0,0 0,0 0,0 z"
       id="path3089"
       style="fill:#000000;fill-opacity:1;fill-rule:evenodd;stroke:#000000;stroke-width:0.25;stroke-miterlimit:3.22173953;stroke-opacity:1;stroke-dasharray:none" /><path
       clip-rule="evenodd"
       d="m 223.1128,115.24368 c 0,3.73438 2.23291,6.20313 5.56982,6.20313 3.33643,0 5.57031,-2.46875 5.57031,-6.20313 0,-3.75976 -2.20947,-6.22851 -5.57031,-6.22851 -3.36035,0 -5.56982,2.46875 -5.56982,6.22851 l 0,0 0,0 0,0 0,0 z m 1.55029,0 c 0,-2.35156 1.20019,-4.9834 4.01953,-4.9834 2.82031,0 4.01855,2.63184 4.01855,4.9834 0,2.32617 -1.19824,4.95801 -4.01855,4.95801 -2.81934,0 -4.01953,-2.63184 -4.01953,-4.95801 l 0,0 0,0 0,0 0,0 z"
       id="path3091"
       style="fill:#000000;fill-opacity:1;fill-rule:evenodd;stroke:#000000;stroke-width:0.25;stroke-miterlimit:3.22173953;stroke-opacity:1;stroke-dasharray:none" /><polygon
       clip-rule="evenodd"
       points="255.6123,137.13184 259.77051,125.0752 258.24512,125.0752 255,134.92188 254.76562,135.8623 254.69434,135.8623 254.45996,134.92188 251.2168,125.0752 249.68994,125.0752 249.68994,125.0752 249.68994,125.0752 249.68994,125.0752 253.85059,137.13184 "
       id="polygon3093"
       style="fill:#000000;fill-opacity:1;fill-rule:evenodd;stroke:#000000;stroke-width:0.25;stroke-miterlimit:3.22173953;stroke-opacity:1;stroke-dasharray:none"
       transform="translate(-15.317383,-15.872531)" /><path
       clip-rule="evenodd"
       d="m 245.87696,111.17825 c 1.15234,-0.63769 2.42187,-0.91797 3.5957,-0.91797 2.74902,0 2.77344,2.37305 2.77344,3.21973 l 0,0 v 0.42285 h -0.77637 l 0,0 c -2.44434,0 -6.90918,0.18848 -6.90918,4.13574 0,1.85742 1.33984,3.40821 3.94727,3.40821 1.29492,0 2.91601,-0.37598 3.92578,-2.23145 l 0,0 h 0.0469 v 2.04395 h 1.31641 l -0.0684,-2.63282 v -5.12402 l 0,0 c 0,-1.64355 -0.35449,-4.4873 -4.25586,-4.4873 -1.4082,0 -2.58594,0.30468 -3.5957,0.75195 l 0,0 v 1.41113 l 0,0 0,0 0,0 z m 6.36914,3.96973 v 0.87109 l 0,0 c 0,2.63281 -1.45703,4.18262 -3.75977,4.18262 -1.36523,0 -2.375,-0.96387 -2.375,-2.25586 0,-2.42188 2.58496,-2.79785 4.79492,-2.79785 l 0,0 h 1.33985 l 0,0 0,0 0,0 z"
       id="path3095"
       style="fill:#000000;fill-opacity:1;fill-rule:evenodd;stroke:#000000;stroke-width:0.25;stroke-miterlimit:3.22173953;stroke-opacity:1;stroke-dasharray:none" /><path
       clip-rule="evenodd"
       d="m 257.19239,106.19485 v 3.00782 h -2.46778 v 1.24609 h 2.46778 v 7.49707 l 0,0 c 0,1.33789 0.0947,3.50098 2.75097,3.50098 0.42285,0 1.01172,-0.0215 1.66797,-0.25879 l 0,0 v -1.24512 l 0,0 c -0.4707,0.21289 -0.91601,0.25879 -1.50391,0.25879 -0.96484,0 -1.43359,-0.30567 -1.43359,-2.35059 l 0,0 v -7.40234 h 2.86719 v -1.24609 h -2.86719 v -3.54883 l -1.48144,0.54101 0,0 0,0 0,0 z"
       id="path3097"
       style="fill:#000000;fill-opacity:1;fill-rule:evenodd;stroke:#000000;stroke-width:0.25;stroke-miterlimit:3.22173953;stroke-opacity:1;stroke-dasharray:none" /><path
       clip-rule="evenodd"
       d="m 263.23242,109.20267 v 12.05664 h 1.4795 v -12.05664 h -1.4795 l 0,0 0,0 0,0 z m -0.0703,-5.33399 v 1.87988 h 1.6211 v -1.87988 h -1.6211 l 0,0 0,0 0,0 z"
       id="path3099"
       style="fill:#000000;fill-opacity:1;fill-rule:evenodd;stroke:#000000;stroke-width:0.25;stroke-miterlimit:3.22173953;stroke-opacity:1;stroke-dasharray:none" /><path
       clip-rule="evenodd"
       d="m 266.29688,115.24368 c 0,3.73438 2.2334,6.20313 5.57031,6.20313 3.33789,0 5.56934,-2.46875 5.56934,-6.20313 0,-3.75976 -2.20996,-6.22851 -5.56934,-6.22851 -3.36133,0 -5.57031,2.46875 -5.57031,6.22851 l 0,0 0,0 0,0 0,0 z m 1.55273,0 c 0,-2.35156 1.19824,-4.9834 4.01758,-4.9834 2.82031,0 4.01953,2.63184 4.01953,4.9834 0,2.32617 -1.19922,4.95801 -4.01953,4.95801 -2.81934,0 -4.01758,-2.63184 -4.01758,-4.95801 l 0,0 0,0 0,0 0,0 z"
       id="path3101"
       style="fill:#000000;fill-opacity:1;fill-rule:evenodd;stroke:#000000;stroke-width:0.25;stroke-miterlimit:3.22173953;stroke-opacity:1;stroke-dasharray:none" /><path
       clip-rule="evenodd"
       d="m 280.51953,121.25931 v -7.02735 l 0,0 c 0,-2.16211 1.50391,-3.97168 3.54786,-3.97168 2.98535,0 2.96191,2.06739 2.96191,3.57129 l 0,0 v 7.42774 h 1.48145 v -7.49805 l 0,0 c 0,-1.83106 -0.3545,-4.74609 -4.23145,-4.74609 -0.56348,0 -2.86816,0.16406 -3.94922,2.67773 l 0,0 h -0.0469 v -2.49023 h -1.31641 l 0.0713,2.77343 v 9.28321 h 1.48144 l 0,0 0,0 0,0 z"
       id="path3103"
       style="fill:#000000;fill-opacity:1;fill-rule:evenodd;stroke:#000000;stroke-width:0.25;stroke-miterlimit:3.22173953;stroke-opacity:1;stroke-dasharray:none" /><path
       clip-rule="evenodd"
       d="m 297.23828,109.64993 c -0.96386,-0.44726 -1.833,-0.63476 -2.86523,-0.63476 -2.32715,0 -4.04297,1.08203 -4.04297,2.9375 0,2.02148 1.54981,2.77343 3.10254,3.4541 1.62109,0.70605 2.67871,1.05761 2.67871,2.61035 0,1.38672 -1.08203,2.18457 -2.72754,2.18457 -0.96191,0 -2.06738,-0.21192 -3.125,-0.70606 l 0,0 -0.0947,1.41211 0,0 c 1.12695,0.40039 2.11621,0.53907 3.17382,0.53907 3.14844,0 4.32325,-1.78516 4.32325,-3.42969 0,-2.09277 -1.6211,-2.96192 -2.77344,-3.45508 -2.06738,-0.91797 -3.10059,-1.17676 -3.10059,-2.60937 0,-1.36329 1.36231,-1.69239 2.51465,-1.69239 1.10352,0 1.9502,0.18848 2.8418,0.56348 l 0,0 0.0947,-1.17383 0,0 0,0 0,0 z"
       id="path3105"
       style="fill:#000000;fill-opacity:1;fill-rule:evenodd;stroke:#000000;stroke-width:0.25;stroke-miterlimit:3.22173953;stroke-opacity:1;stroke-dasharray:none" /></g><g
     transform="translate(-15.317383,-15.872531)"
     style="stroke:#000000;stroke-width:0.25;stroke-miterlimit:3.22173953;stroke-opacity:1;stroke-dasharray:none"
     id="g5732"><polygon
       clip-rule="evenodd"
       stroke-miterlimit="2.6131001"
       points="16.538086,109.57324 29.450684,109.57324 29.450684,105.94434 20.90332,105.94434 20.90332,88.052734 16.538086,88.052734 16.538086,88.052734 16.538086,88.052734 16.538086,88.052734 "
       id="polygon3107"
       style="fill:#000000;fill-opacity:1;fill-rule:evenodd;stroke:#000000;stroke-width:0.25;stroke-miterlimit:3.22173953;stroke-opacity:1;stroke-dasharray:none" /><path
       clip-rule="evenodd"
       stroke-miterlimit="2.6131001"
       d="m 42.691406,93.647461 v 8.425779 l 0,0 c 0,2.15039 -1.321777,4.33301 -3.75,4.33301 -2.583008,0 -2.706054,-2.08984 -2.706054,-3.13477 l 0,0 v -9.624019 h -4.180665 v 10.300779 l 0,0 c 0,5.47071 3.75,5.8711 5.65625,5.8711 1.230469,0 3.504883,-0.40039 5.042969,-2.73633 l 0,0 h 0.0918 v 2.49023 h 4.026856 V 93.647461 h -4.181153 l 0,0 0,0 0,0 z"
       id="path3109"
       style="fill:#000000;fill-opacity:1;fill-rule:evenodd;stroke:#000000;stroke-width:0.25;stroke-miterlimit:3.22173953;stroke-opacity:1;stroke-dasharray:none" /><path
       clip-rule="evenodd"
       stroke-miterlimit="2.6131001"
       d="m 62.080078,93.833008 c -1.19873,-0.307617 -2.490234,-0.429688 -3.535156,-0.429688 -5.656738,0 -8.608399,3.810547 -8.608399,8.05469 0,4.21094 2.613282,8.36133 8.300782,8.36133 1.813965,0 3.320312,-0.36914 4.089355,-0.61524 l 0,0 -0.153808,-3.04492 0,0 c -1.075196,0.46191 -2.245118,0.64746 -3.197266,0.64746 -2.920898,0 -4.672852,-2.24316 -4.672852,-5.13379 0,-3.199217 2.152344,-5.256835 4.950196,-5.256835 0.982422,0 1.813965,0.122071 2.582031,0.429688 l 0,0 0.245117,-3.012695 0,0 0,0 0,0 z"
       id="path3111"
       style="fill:#000000;fill-opacity:1;fill-rule:evenodd;stroke:#000000;stroke-width:0.25;stroke-miterlimit:3.22173953;stroke-opacity:1;stroke-dasharray:none" /><path
       clip-rule="evenodd"
       d="m 79.406738,102.87109 v -0.95214 l 0,0 c 0,-1.41602 -0.12207,-8.51563 -7.347168,-8.51563 -4.273925,0 -7.870117,3.074219 -7.870117,8.20801 0,5.625 3.811035,8.20801 8.57666,8.20801 1.906739,0 3.874512,-0.36914 5.504395,-0.98438 l 0,0 v -3.13476 l 0,0 c -1.506836,0.67675 -3.137696,1.10644 -4.981934,1.10644 -3.13623,0 -4.61084,-1.90723 -4.733887,-3.93555 l 0,0 h 10.852051 l 0,0 0,0 0,0 z M 68.554687,100.0127 c 0.03027,-2.089848 1.413575,-3.720708 3.259278,-3.720708 1.536621,0 3.351074,1.044922 3.288574,3.720708 l 0,0 h -6.547852 l 0,0 0,0 0,0 z"
       id="path3113"
       style="fill:#000000;fill-opacity:1;fill-rule:evenodd;stroke:#000000;stroke-width:0.25;stroke-miterlimit:3.22173953;stroke-opacity:1;stroke-dasharray:none" /><path
       clip-rule="evenodd"
       stroke-miterlimit="2.6131001"
       d="m 86.678711,109.57324 v -8.57715 l 0,0 c 0,-1.721676 1.167969,-4.182613 3.750976,-4.182613 1.967774,0 2.705079,1.599609 2.705079,3.137695 l 0,0 v 9.622068 H 97.31543 V 98.413086 l 0,0 c 0,-3.198242 -2.3667,-5.009766 -5.655274,-5.009766 -1.230469,0 -3.505859,0.398438 -5.042969,2.734375 l 0,0 h -0.09131 v -2.490234 h -4.02832 v 15.925779 h 4.181152 l 0,0 0,0 0,0 z"
       id="path3117"
       style="fill:#000000;fill-opacity:1;fill-rule:evenodd;stroke:#000000;stroke-width:0.25;stroke-miterlimit:3.22173953;stroke-opacity:1;stroke-dasharray:none" /><path
       clip-rule="evenodd"
       stroke-miterlimit="2.6131001"
       d="m 102.74805,96.723633 v 8.175777 l 0,0 c 0,1.04493 0.0303,4.91993 4.64062,4.91993 1.47608,0 2.98242,-0.33692 3.22901,-0.40039 l 0,0 v -2.95118 l 0,0 c -0.4917,0.15332 -1.07666,0.27735 -1.6294,0.27735 -2.05957,0 -2.05957,-1.41602 -2.05957,-2.79688 l 0,0 v -7.224607 h 3.68897 v -3.076172 h -3.68897 v -4.487305 l -4.18066,1.321289 v 3.166016 h -3.136234 v 3.076172 h 3.136234 l 0,0 0,0 0,0 z"
       id="path3119"
       style="fill:#000000;fill-opacity:1;fill-rule:evenodd;stroke:#000000;stroke-width:0.25;stroke-miterlimit:3.22173953;stroke-opacity:1;stroke-dasharray:none" /><polygon
       clip-rule="evenodd"
       stroke-miterlimit="2.6131001"
       points="139.53369,91.865234 139.53369,88.052734 122.74805,88.052734 122.74805,88.052734 122.74805,88.052734 122.74805,88.052734 122.74805,91.865234 128.95752,91.865234 128.95752,109.57324 133.32422,109.57324 133.32422,91.865234 "
       id="polygon3121"
       style="fill:#000000;fill-opacity:1;fill-rule:evenodd;stroke:#000000;stroke-width:0.25;stroke-miterlimit:3.22173953;stroke-opacity:1;stroke-dasharray:none" /><path
       clip-rule="evenodd"
       d="m 156.26562,102.87109 v -0.95214 l 0,0 c 0,-1.41602 -0.12207,-8.51563 -7.34716,-8.51563 -4.27246,0 -7.8711,3.074219 -7.8711,8.20801 0,5.625 3.81348,8.20801 8.57764,8.20801 1.90723,0 3.87354,-0.36914 5.50293,-0.98438 l 0,0 v -3.13476 l 0,0 c -1.50586,0.67675 -3.13574,1.10644 -4.98047,1.10644 -3.13574,0 -4.61035,-1.90723 -4.7334,-3.93555 l 0,0 h 10.85156 l 0,0 0,0 0,0 z m -10.85156,-2.85839 c 0.0303,-2.089848 1.41455,-3.720708 3.25879,-3.720708 1.53711,0 3.35108,1.044922 3.28906,3.720708 l 0,0 h -6.54785 l 0,0 0,0 0,0 z"
       id="path3123"
       style="fill:#000000;fill-opacity:1;fill-rule:evenodd;stroke:#000000;stroke-width:0.25;stroke-miterlimit:3.22173953;stroke-opacity:1;stroke-dasharray:none" /><path
       clip-rule="evenodd"
       stroke-miterlimit="2.6131001"
       d="m 170.57861,93.833008 c -1.1997,-0.307617 -2.49023,-0.429688 -3.53662,-0.429688 -5.65625,0 -8.6084,3.810547 -8.6084,8.05469 0,4.21094 2.61377,8.36133 8.30079,8.36133 1.81445,0 3.32031,-0.36914 4.08984,-0.61524 l 0,0 -0.1543,-3.04492 0,0 c -1.07519,0.46191 -2.24316,0.64746 -3.19678,0.64746 -2.92138,0 -4.67285,-2.24316 -4.67285,-5.13379 0,-3.199217 2.15186,-5.256835 4.94971,-5.256835 0.98291,0 1.81299,0.122071 2.58203,0.429688 l 0,0 0.24658,-3.012695 0,0 0,0 0,0 z"
       id="path3127"
       style="fill:#000000;fill-opacity:1;fill-rule:evenodd;stroke:#000000;stroke-width:0.25;stroke-miterlimit:3.22173953;stroke-opacity:1;stroke-dasharray:none" /><path
       clip-rule="evenodd"
       stroke-miterlimit="2.6131001"
       d="m 173.60937,109.57324 h 4.18116 v -7.93261 l 0,0 c 0,-3.442388 2.02881,-4.827153 3.75,-4.827153 2.67431,0 2.70508,2.336914 2.70508,3.599613 l 0,0 v 9.16015 h 4.18212 V 99.02832 l 0,0 c 0,-0.644531 -0.061,-5.625 -5.62597,-5.625 -3.16797,0 -4.61231,2.058594 -5.07324,2.734375 l 0,0 h -0.0918 l 0.15381,-2.458984 v -7.162598 h -4.18116 v 23.057127 l 0,0 0,0 0,0 z"
       id="path3129"
       style="fill:#000000;fill-opacity:1;fill-rule:evenodd;stroke:#000000;stroke-width:0.25;stroke-miterlimit:3.22173953;stroke-opacity:1;stroke-dasharray:none" /><path
       clip-rule="evenodd"
       stroke-miterlimit="2.6131001"
       d="m 196.59424,109.57324 v -8.57715 l 0,0 c 0,-1.721676 1.16846,-4.182613 3.75146,-4.182613 1.96778,0 2.70606,1.599609 2.70606,3.137695 l 0,0 v 9.622068 h 4.18066 V 98.413086 l 0,0 c 0,-3.198242 -2.36816,-5.009766 -5.65771,-5.009766 -1.22901,0 -3.5044,0.398438 -5.04151,2.734375 l 0,0 h -0.0928 v -2.490234 h -4.02734 v 15.925779 h 4.18115 l 0,0 0,0 0,0 z"
       id="path3131"
       style="fill:#000000;fill-opacity:1;fill-rule:evenodd;stroke:#000000;stroke-width:0.25;stroke-miterlimit:3.22173953;stroke-opacity:1;stroke-dasharray:none" /><path
       clip-rule="evenodd"
       d="m 210.29541,101.61133 c 0,5.31738 3.47412,8.20801 8.23975,8.20801 4.73388,0 8.208,-2.89063 8.208,-8.20801 0,-5.319338 -3.47412,-8.20801 -8.208,-8.20801 -4.76563,0 -8.23975,2.888672 -8.23975,8.20801 l 0,0 0,0 0,0 0,0 z m 4.36523,0 c 0,-3.688479 1.99952,-5.195314 3.87452,-5.195314 2.30566,0 3.84277,2.057617 3.84277,5.195314 0,3.13476 -1.53711,5.19531 -3.84277,5.19531 -1.875,0 -3.87452,-1.50684 -3.87452,-5.19531 l 0,0 0,0 0,0 0,0 z"
       id="path3133"
       style="fill:#000000;fill-opacity:1;fill-rule:evenodd;stroke:#000000;stroke-width:0.25;stroke-miterlimit:3.22173953;stroke-opacity:1;stroke-dasharray:none" /><polygon
       clip-rule="evenodd"
       stroke-miterlimit="2.6131001"
       points="229.79883,86.516113 229.79883,109.57324 233.97949,109.57324 233.97949,86.516113 229.79883,86.516113 229.79883,86.516113 229.79883,86.516113 "
       id="polygon3137"
       style="fill:#000000;fill-opacity:1;fill-rule:evenodd;stroke:#000000;stroke-width:0.25;stroke-miterlimit:3.22173953;stroke-opacity:1;stroke-dasharray:none" /><path
       clip-rule="evenodd"
       d="m 237.08398,101.61133 c 0,5.31738 3.47364,8.20801 8.23926,8.20801 4.73438,0 8.20899,-2.89063 8.20899,-8.20801 0,-5.319338 -3.47461,-8.20801 -8.20899,-8.20801 -4.76562,0 -8.23926,2.888672 -8.23926,8.20801 l 0,0 0,0 0,0 0,0 z m 4.36524,0 c 0,-3.688479 1.99805,-5.195314 3.87402,-5.195314 2.30615,0 3.84278,2.057617 3.84278,5.195314 0,3.13476 -1.53663,5.19531 -3.84278,5.19531 -1.87597,0 -3.87402,-1.50684 -3.87402,-5.19531 l 0,0 0,0 0,0 0,0 z"
       id="path3139"
       style="fill:#000000;fill-opacity:1;fill-rule:evenodd;stroke:#000000;stroke-width:0.25;stroke-miterlimit:3.22173953;stroke-opacity:1;stroke-dasharray:none" /><path
       clip-rule="evenodd"
       d="m 257.35352,115.29004 c 2.33886,0.92383 4.42871,1.10937 5.93457,1.10937 8.02539,0 8.11523,-6.24023 8.11523,-8.08593 l 0,0 V 93.647461 h -3.93555 v 2.675781 h -0.0898 l 0,0 c -1.07617,-2.214844 -3.35156,-2.765625 -5.16602,-2.765625 -3.81054,0 -6.54785,3.195313 -6.54785,8.115233 0,3.68848 1.75293,7.96094 6.6084,7.96094 3.35254,0 4.51953,-2.12109 4.85938,-2.88867 l 0,0 h 0.0918 v 2.08984 l 0,0 c 0,2.64453 -1.63086,4.27344 -4.61133,4.27344 -1.7207,0 -3.53515,-0.61524 -4.91992,-1.32129 l 0,0 -0.33886,3.50293 0,0 0,0 0,0 z m 6.05761,-18.351563 c 2.33594,0 3.8125,1.660156 3.8125,4.333983 0,3.41211 -1.7207,5.04297 -3.50586,5.04297 -1.41308,0 -3.68847,-0.73926 -3.68847,-4.73633 0,-2.396483 1.04492,-4.640623 3.38183,-4.640623 l 0,0 0,0 0,0 0,0 z"
       id="path3143"
       style="fill:#000000;fill-opacity:1;fill-rule:evenodd;stroke:#000000;stroke-width:0.25;stroke-miterlimit:3.22173953;stroke-opacity:1;stroke-dasharray:none" /><path
       clip-rule="evenodd"
       d="m 275.45215,93.647461 v 15.925779 h 4.18164 V 93.647461 h -4.18164 l 0,0 0,0 0,0 z m 4.24219,-6.669922 h -4.30372 v 4.304688 h 4.30372 v -4.304688 l 0,0 0,0 0,0 z"
       id="path3147"
       style="fill:#000000;fill-opacity:1;fill-rule:evenodd;stroke:#000000;stroke-width:0.25;stroke-miterlimit:3.22173953;stroke-opacity:1;stroke-dasharray:none" /><path
       clip-rule="evenodd"
       d="m 297.96875,102.87109 v -0.95214 l 0,0 c 0,-1.41602 -0.12207,-8.51563 -7.34863,-8.51563 -4.27246,0 -7.86914,3.074219 -7.86914,8.20801 0,5.625 3.81152,8.20801 8.57714,8.20801 1.90723,0 3.87403,-0.36914 5.50293,-0.98438 l 0,0 v -3.13476 l 0,0 c -1.50585,0.67675 -3.13476,1.10644 -4.98046,1.10644 -3.13477,0 -4.61133,-1.90723 -4.73438,-3.93555 l 0,0 h 10.85254 l 0,0 0,0 0,0 z m -10.85254,-2.85839 c 0.0322,-2.089848 1.41406,-3.720708 3.25977,-3.720708 1.53515,0 3.34961,1.044922 3.28906,3.720708 l 0,0 h -6.54883 l 0,0 0,0 0,0 z"
       id="path3151"
       style="fill:#000000;fill-opacity:1;fill-rule:evenodd;stroke:#000000;stroke-width:0.25;stroke-miterlimit:3.22173953;stroke-opacity:1;stroke-dasharray:none" /><path
       clip-rule="evenodd"
       stroke-miterlimit="2.6131001"
       d="m 311.48145,94.079102 c -2.2754,-0.707032 -4.18165,-0.675782 -5.1045,-0.675782 -4.70215,0 -5.80761,2.888672 -5.80761,4.702149 0,2.368161 1.35156,3.444331 3.32031,4.274411 1.66015,0.70606 3.71777,0.98438 3.71777,2.61328 0,0.64454 -0.49121,1.72071 -2.64355,1.72071 -2.15137,0 -4.27344,-0.98438 -4.48828,-1.07617 l 0,0 -0.18555,3.25878 0,0 c 1.59961,0.55372 3.68945,0.92286 5.28906,0.92286 4.27149,0 6.21094,-2.39746 6.21094,-4.91993 0,-3.13476 -2.46094,-4.24218 -4.27539,-4.82617 -1.28906,-0.429685 -2.82715,-0.708006 -2.82715,-2.089842 0,-0.40039 0.15332,-1.660156 2.79785,-1.660156 1.68945,0 3.04492,0.551758 3.62793,0.769531 l 0,0 0.36817,-3.013671 0,0 0,0 0,0 z"
       id="path3155"
       style="fill:#000000;fill-opacity:1;fill-rule:evenodd;stroke:#000000;stroke-width:0.25;stroke-miterlimit:3.22173953;stroke-opacity:1;stroke-dasharray:none" /></g></g>
</svg>